<svg width="40" height="24" viewBox="0 0 40 24" fill="none" xmlns="http://www.w3.org/2000/svg">
<path d="M8.49669 0H17.9358C19.2585 0 20.0749 1.09292 19.7676 2.43323L15.3712 21.5732C15.0621 22.9098 13.7412 24 12.4249 24H2.98214C1.66214 24 0.844868 22.9098 1.15123 21.5732L5.54669 2.43323C5.85578 1.09292 7.17487 0 8.49669 0Z" fill="#E03A3E"/>
<path d="M17.1534 0H28.008C29.3262 0 28.7316 1.09292 28.4216 2.43323L24.0252 21.5732C23.7189 22.9098 23.8152 24 22.4952 24H11.6407C10.3171 24 9.49979 22.9098 9.80979 21.5732L14.2016 2.43323C14.5152 1.09292 15.8307 0 17.1534 0Z" fill="#004B84"/>
<path d="M27.5793 0H37.0165C38.3374 0 39.1584 1.09292 38.8484 2.43323L34.452 21.5732C34.1438 22.9098 32.822 24 31.5038 24H22.0656C20.7474 24 19.9265 22.9098 20.2347 21.5732L24.632 2.43323C24.9402 1.09292 26.2593 0 27.5793 0Z" fill="#008185"/>
<path d="M15.5772 10.5859C15.2717 10.6459 15.0754 10.6829 14.8826 10.7152C14.6881 10.7456 14.4999 10.7724 14.1999 10.8139L14.1763 10.837L14.1563 10.8536C14.1245 11.0798 14.1035 11.2727 14.0617 11.5026C14.0226 11.7379 13.9708 12.0084 13.8835 12.3924C13.8154 12.6869 13.7817 12.7902 13.7426 12.8936C13.7063 12.9989 13.6654 13.1013 13.5908 13.3884L13.6081 13.4142L13.6254 13.4392C13.9035 13.4253 14.0817 13.4161 14.2699 13.4142C14.4581 13.4106 14.6508 13.4142 14.9499 13.4161L14.9772 13.3976L15.0045 13.3709C15.0481 13.1087 15.0526 13.0395 15.0808 12.9093C15.1063 12.7727 15.1508 12.5853 15.2626 12.0804C15.3135 11.8386 15.3754 11.6041 15.429 11.3622C15.4872 11.1167 15.5445 10.8795 15.599 10.6404L15.5899 10.6164L15.5772 10.5859Z" fill="white"/>
<path d="M15.5841 9.61565C15.3032 9.4458 14.8177 9.49749 14.4868 9.73103C14.1559 9.95995 14.115 10.2775 14.3941 10.4464C14.6714 10.6135 15.1641 10.5646 15.4923 10.331C15.8187 10.0984 15.8632 9.77718 15.5841 9.61565Z" fill="white"/>
<path d="M10.2485 7.42059C9.23396 7.43167 8.93759 7.42059 8.84032 7.39844C8.79941 7.57382 8.11577 10.7769 8.11577 10.7769C7.96759 11.4277 7.8585 11.8911 7.49668 12.1837C7.2885 12.3591 7.04759 12.4458 6.76759 12.4458C6.3185 12.4458 6.05668 12.2187 6.01032 11.7858L6.00487 11.6418C6.00487 11.6418 6.13941 10.7732 6.14305 10.7667C6.14305 10.7667 6.8585 7.84798 6.98759 7.46305C6.99032 7.43998 6.99396 7.43167 7.00032 7.42151C5.5985 7.43351 5.35032 7.42151 5.33487 7.39936C5.3285 7.42798 5.2885 7.6089 5.2885 7.6089L4.55668 10.8951L4.49214 11.1775L4.37305 12.0895C4.37305 12.36 4.42396 12.5787 4.52941 12.768C4.86759 13.3643 5.8185 13.4492 6.35941 13.4492C7.05305 13.4492 7.70123 13.3015 8.14214 13.0264C8.90668 12.5695 9.10941 11.8532 9.28396 11.2181L9.36941 10.8895C9.36941 10.8895 10.1112 7.85905 10.2385 7.46305C10.2385 7.43998 10.2421 7.43167 10.2485 7.42059Z" fill="white"/>
<path d="M12.7679 9.86597C12.5888 9.86597 12.2634 9.91028 11.9707 10.057C11.8625 10.1143 11.7607 10.1743 11.6561 10.2407L11.7498 9.8872L11.6988 9.82812C11.0788 9.95551 10.9379 9.97674 10.367 10.057L10.3207 10.0894C10.2488 10.6487 10.1961 11.0697 9.9443 12.1727C9.84975 12.5724 9.75157 12.9832 9.6543 13.3894L9.67975 13.441C10.2743 13.4115 10.4488 13.4115 10.9588 13.418L11.0025 13.3727C11.0643 13.0349 11.0743 12.9583 11.2207 12.2734C11.2852 11.9475 11.4243 11.2358 11.4952 10.982C11.6252 10.9238 11.7479 10.8684 11.8698 10.8684C12.1561 10.8684 12.1207 11.1186 12.1116 11.222C12.1007 11.3909 11.9925 11.9438 11.8852 12.421L11.817 12.7238C11.767 12.9527 11.7116 13.1734 11.6616 13.4014L11.6843 13.442C12.2634 13.4124 12.4361 13.4124 12.9334 13.4189L12.9907 13.3737C13.0798 12.8475 13.1079 12.7054 13.267 11.9401L13.347 11.5875C13.5025 10.897 13.5798 10.5481 13.4616 10.2629C13.337 9.94351 13.0388 9.86597 12.7679 9.86597Z" fill="white"/>
<path d="M22.6296 9.86597C22.4514 9.86597 22.1232 9.91028 21.8323 10.057C21.7278 10.1143 21.6214 10.1743 21.5196 10.2407L21.6132 9.8872L21.5623 9.82812C20.9405 9.95551 20.8041 9.97674 20.2296 10.057L20.1851 10.0894C20.1151 10.6487 20.0578 11.0697 19.8096 12.1727C19.7151 12.5724 19.6205 12.9832 19.5205 13.3894L19.5496 13.441C20.1351 13.4115 20.3141 13.4115 20.8214 13.418L20.8678 13.3727C20.9287 13.0349 20.9396 12.9583 21.0796 12.2734C21.1487 11.9475 21.2914 11.2358 21.3614 10.982C21.4878 10.9238 21.6141 10.8684 21.7387 10.8684C22.0187 10.8684 21.9869 11.1186 21.9769 11.222C21.9632 11.3909 21.8614 11.9438 21.7523 12.421L21.6832 12.7238C21.6287 12.9527 21.5732 13.1734 21.5251 13.4014L21.5469 13.442C22.1305 13.4124 22.3023 13.4124 22.7978 13.4189L22.8587 13.3737C22.946 12.8475 22.9696 12.7054 23.1314 11.9401L23.2069 11.5875C23.3669 10.897 23.4432 10.5481 23.3278 10.2629C23.1987 9.94351 22.8978 9.86597 22.6296 9.86597Z" fill="white"/>
<path d="M36.4388 9.91774L36.3924 9.86328C35.7788 9.98974 35.667 10.0101 35.1043 10.0848L35.0634 10.1254C35.0615 10.1319 35.0615 10.1421 35.057 10.1522L35.0543 10.1421C34.6324 11.1261 34.6488 10.9119 34.3061 11.6836C34.3006 11.6504 34.3006 11.6254 34.3006 11.5904L34.2161 9.91774L34.1625 9.86328C33.5215 9.98974 33.5043 10.0101 32.9134 10.0848L32.8643 10.1254C32.8634 10.1485 32.8606 10.1716 32.8579 10.191L32.8634 10.2021C32.9325 10.5851 32.9197 10.4993 32.9906 11.1057C33.0261 11.4021 33.0734 11.7039 33.1079 11.9947C33.1652 12.4876 33.1988 12.7294 33.2706 13.4799C32.8688 14.1454 32.7743 14.4011 32.3943 14.9891L32.3952 14.9919L32.1234 15.4304C32.0888 15.4756 32.0625 15.5051 32.0215 15.5171C31.9788 15.5402 31.9215 15.5476 31.8443 15.5476H31.6934L31.4697 16.2999L32.2379 16.3119C32.6897 16.3101 32.9715 16.0977 33.1243 15.8097L33.6061 14.9725H33.6006L33.6488 14.9134C33.9715 14.2054 36.4388 9.91774 36.4388 9.91774Z" fill="white"/>
<path d="M29.1478 9.16343C29.1869 9.00281 29.2151 8.80804 29.2151 8.61881C29.2151 8.36312 29.1669 8.12035 29.0242 7.92281C28.656 7.40497 27.936 7.39943 27.0933 7.39481L26.6824 7.3985C25.6087 7.41235 25.1815 7.40589 25.0024 7.38281C24.9869 7.46404 24.956 7.60527 24.956 7.60527L24.5751 9.41543C24.5751 9.41543 23.6569 13.2564 23.6133 13.4354C24.5469 13.4253 24.9351 13.4253 25.0906 13.4419C25.1315 13.26 25.3478 12.1856 25.3478 12.1856C25.3478 12.1856 25.5333 11.4019 25.5442 11.3733C25.5442 11.3733 25.606 11.293 25.6642 11.2579H25.7496C26.5551 11.2579 27.4696 11.2579 28.186 10.728C28.6669 10.3588 28.9987 9.81881 29.1478 9.16343ZM27.6315 9.27512C27.5415 9.67481 27.2887 10.0145 26.9596 10.1742C26.6833 10.3145 26.3524 10.3256 26.0096 10.3256H25.7869L25.8042 10.2379C25.8042 10.2379 26.2142 8.43327 26.2124 8.43697L26.226 8.3465L26.2342 8.2745L26.3969 8.29112C26.3969 8.29112 27.2351 8.36312 27.2569 8.36312C27.5887 8.49512 27.726 8.83574 27.6315 9.27512Z" fill="white"/>
<path d="M18.0869 9.88672C17.8015 9.88672 17.1242 9.91626 16.5933 10.4147C16.2169 10.7673 16.0397 11.2538 15.9306 11.7163C15.8251 12.1926 15.6988 13.0446 16.4733 13.3639C16.7151 13.4655 17.056 13.4941 17.2769 13.4941C17.846 13.4941 18.426 13.3353 18.8606 12.8655C19.1997 12.4861 19.3524 11.923 19.4042 11.6858C19.5806 10.9104 19.4469 10.5513 19.2769 10.3307C19.0133 9.99656 18.5615 9.88672 18.0869 9.88672ZM18.1051 11.6313C18.0815 11.7578 17.9697 12.2443 17.816 12.4501C17.7115 12.6033 17.5851 12.6956 17.4424 12.6956C17.4042 12.6956 17.1579 12.6956 17.1542 12.3264C17.1488 12.1455 17.1869 11.9553 17.2351 11.7523C17.3624 11.1661 17.5206 10.6732 17.9142 10.6732C18.2224 10.6741 18.2424 11.0433 18.1051 11.6313Z" fill="white"/>
<path d="M31.5919 13.4268C31.6782 12.9062 31.7637 12.4013 31.9891 11.4006C32.0955 10.9243 32.2109 10.4471 32.3246 9.97541L32.3037 9.92188C31.6846 10.0373 31.5219 10.0622 30.9291 10.1508L30.88 10.1859C30.8737 10.2366 30.8673 10.2846 30.8609 10.3336C30.7673 10.1794 30.6364 10.0446 30.4246 9.96157C30.1637 9.86003 29.54 9.99941 29.0073 10.4914C28.6346 10.8422 28.4519 11.325 28.3473 11.7865C28.2409 12.2526 28.1146 13.1065 28.8882 13.412C29.1319 13.5154 29.3537 13.5468 29.5728 13.5376C29.8082 13.5246 30.0255 13.3982 30.2282 13.2256C30.2091 13.2985 30.1919 13.3714 30.1728 13.4453L30.21 13.4886C30.7655 13.4665 30.9346 13.4665 31.5355 13.4683L31.5919 13.4268ZM30.6119 11.7108C30.5719 11.888 30.5219 12.0634 30.4782 12.2397C30.4382 12.3468 30.3937 12.4483 30.3437 12.5148C30.2391 12.6616 30 12.7502 29.8591 12.7502C29.8209 12.7502 29.58 12.7502 29.5709 12.3865C29.5691 12.2093 29.6064 12.0219 29.6491 11.816C29.7819 11.2437 29.9346 10.7536 30.33 10.7536C30.5873 10.7536 30.71 11.0083 30.6719 11.433C30.6519 11.5234 30.6364 11.6046 30.6119 11.7108Z" fill="white"/>
</svg>
